<svg width="18" height="224" viewBox="0 0 18 224" fill="none" xmlns="http://www.w3.org/2000/svg">
<path d="M6.53508 22V21.535L8.83008 21.325H9.32508L11.6651 21.535V22H6.53508ZM8.15508 22C8.20008 20.32 8.20008 18.61 8.20008 16.87V16.12C8.20008 14.395 8.20008 12.685 8.15508 10.975H10.0301C9.98508 12.655 9.98508 14.38 9.98508 16.12V16.87C9.98508 18.58 9.98508 20.305 10.0301 22H8.15508ZM4.33008 13.975L4.42008 10.975H13.7651L13.8701 13.975H13.1351L12.4451 10.975L13.2851 11.53H4.90008L5.75508 10.975L5.06508 13.975H4.33008Z" fill="#5B5651"/>
<path d="M8.63 85.43C6.38 85.43 5 83.72 5 81.005C5 77.495 7.565 74.45 11.615 74L11.675 74.33C8.27 75.08 6.53 77.63 6.53 80.81C6.53 83.48 7.325 84.95 8.645 84.95C9.725 84.95 10.565 83.93 10.565 81.965C10.565 80.165 9.83 79.205 8.6 79.205C7.805 79.205 7.085 79.52 6.35 80.345L6.065 80.165H6.17C6.935 79.085 7.925 78.545 9.125 78.545C10.955 78.545 12.035 79.88 12.035 81.86C12.035 83.915 10.625 85.43 8.63 85.43Z" fill="#5B5651"/>
<path d="M2.06 122.19V121.77L4.175 121.53H5.495L7.445 121.785V122.22L2.06 122.19ZM4.04 122.19C4.07 121.035 4.085 119.865 4.085 118.725V112.05L2 112.38V111.915L5.39 111.06L5.615 111.225L5.555 113.61V118.725C5.555 119.865 5.57 121.035 5.6 122.19H4.04ZM11.9713 122.43C10.1413 122.43 9.01625 121.65 8.73125 120.195C8.85125 119.865 9.10625 119.685 9.42125 119.685C9.82625 119.685 10.0663 119.91 10.2013 120.555L10.5913 122.01L9.97625 121.53C10.4713 121.8 10.9063 121.95 11.5363 121.95C13.1863 121.95 14.1163 120.945 14.1163 119.34C14.1163 117.66 13.2163 116.715 11.4613 116.715H10.8013V116.19H11.3863C12.8263 116.19 13.8313 115.32 13.8313 113.685C13.8313 112.275 13.1113 111.465 11.8363 111.465C11.2963 111.465 10.8013 111.57 10.2013 111.87L10.9063 111.45L10.5163 112.83C10.3813 113.385 10.1113 113.565 9.72125 113.565C9.43625 113.565 9.19625 113.43 9.09125 113.175C9.31625 111.63 10.6813 111 12.1963 111C14.1913 111 15.3163 112.065 15.3163 113.64C15.3163 115.08 14.2813 116.28 12.0763 116.52V116.355C14.5663 116.475 15.6312 117.645 15.6312 119.37C15.6312 121.215 14.1613 122.43 11.9713 122.43Z" fill="#5B5651"/>
<path d="M2 162.19V161.29C2.975 160.15 3.95 159.01 4.685 158.155C6.29 156.25 6.95 155.215 6.95 153.835C6.95 152.32 6.185 151.465 4.88 151.465C4.355 151.465 3.83 151.6 3.23 151.945L3.875 151.51L3.485 153.01C3.35 153.685 3.05 153.88 2.69 153.88C2.375 153.88 2.105 153.7 2 153.385C2.225 151.81 3.71 151 5.33 151C7.415 151 8.45 152.11 8.45 153.88C8.45 155.305 7.46 156.415 5.075 158.725C4.595 159.205 3.635 160.225 2.66 161.23L2.81 160.75V160.99H8.87V162.19H2ZM13.855 162.43C11.995 162.43 10.3 160.765 10.3 156.685C10.3 152.65 11.995 151 13.855 151C15.7 151 17.41 152.65 17.41 156.685C17.41 160.765 15.7 162.43 13.855 162.43ZM13.855 161.95C14.92 161.95 15.97 160.72 15.97 156.685C15.97 152.71 14.92 151.48 13.855 151.48C12.775 151.48 11.74 152.71 11.74 156.685C11.74 160.72 12.775 161.95 13.855 161.95Z" fill="#5B5651"/>
<path d="M1 205.19V204.29C1.975 203.15 2.95 202.01 3.685 201.155C5.29 199.25 5.95 198.215 5.95 196.835C5.95 195.32 5.185 194.465 3.88 194.465C3.355 194.465 2.83 194.6 2.23 194.945L2.875 194.51L2.485 196.01C2.35 196.685 2.05 196.88 1.69 196.88C1.375 196.88 1.105 196.7 1 196.385C1.225 194.81 2.71 194 4.33 194C6.415 194 7.45 195.11 7.45 196.88C7.45 198.305 6.46 199.415 4.075 201.725C3.595 202.205 2.635 203.225 1.66 204.23L1.81 203.75V203.99H7.87V205.19H1ZM10.89 205.19L10.77 205.085L15.555 194.96L15.39 195.665V195.425H9.45V194.225H16.08V194.99L12.15 205.19H10.89Z" fill="#5B5651"/>
</svg>
