<svg width="18" height="224" viewBox="0 0 18 224" fill="none" xmlns="http://www.w3.org/2000/svg">
<path d="M5.36539 22.075L2.18539 10.975H4.06039L6.55039 20.395H6.28039L6.35539 20.17L9.04039 10.975H10.0454L12.7904 20.455H12.5354L12.5804 20.215L15.0404 10.975H15.7604L12.6254 22.075H11.6504L8.83039 12.76H9.11539L9.05539 12.985L6.34039 22.075H5.36539ZM1.15039 11.455V10.975H5.71039V11.455L3.62539 11.635H3.22039L1.15039 11.455ZM7.37539 11.455V10.975H11.8454V11.455L9.89539 11.635H9.23539L7.37539 11.455ZM13.3904 11.455V10.975H17.0354V11.455L15.3854 11.635H15.0404L13.3904 11.455Z" fill="#5B5651"/>
<path d="M8.12 85.205C6.41 85.205 5.255 84.38 5 82.955C5.12 82.64 5.39 82.475 5.705 82.475C6.11 82.475 6.35 82.7 6.455 83.315L6.845 84.74L6.335 84.32C6.845 84.59 7.235 84.725 7.895 84.725C9.56 84.725 10.52 83.66 10.52 81.74C10.52 79.91 9.53 79.025 8.015 79.025C7.385 79.025 6.815 79.13 6.29 79.355L5.9 79.175L6.245 74H11.765V75.2H6.5L6.815 74.375L6.485 79.085L6.005 78.92C6.8 78.53 7.55 78.38 8.435 78.38C10.655 78.38 12.08 79.52 12.08 81.68C12.08 83.84 10.505 85.205 8.12 85.205Z" fill="#5B5651"/>
<path d="M2.06 122.19V121.77L4.175 121.53H5.495L7.445 121.785V122.22L2.06 122.19ZM4.04 122.19C4.07 121.035 4.085 119.865 4.085 118.725V112.05L2 112.38V111.915L5.39 111.06L5.615 111.225L5.555 113.61V118.725C5.555 119.865 5.57 121.035 5.6 122.19H4.04ZM8.98625 122.19V121.29C9.96125 120.15 10.9363 119.01 11.6713 118.155C13.2763 116.25 13.9363 115.215 13.9363 113.835C13.9363 112.32 13.1713 111.465 11.8663 111.465C11.3413 111.465 10.8163 111.6 10.2163 111.945L10.8613 111.51L10.4713 113.01C10.3363 113.685 10.0362 113.88 9.67625 113.88C9.36125 113.88 9.09125 113.7 8.98625 113.385C9.21125 111.81 10.6963 111 12.3163 111C14.4013 111 15.4363 112.11 15.4363 113.88C15.4363 115.305 14.4463 116.415 12.0613 118.725C11.5813 119.205 10.6213 120.225 9.64625 121.23L9.79625 120.75V120.99H15.8563V122.19H8.98625Z" fill="#5B5651"/>
<path d="M2.06 162.19V161.77L4.175 161.53H5.495L7.445 161.785V162.22L2.06 162.19ZM4.04 162.19C4.07 161.035 4.085 159.865 4.085 158.725V152.05L2 152.38V151.915L5.39 151.06L5.615 151.225L5.555 153.61V158.725C5.555 159.865 5.57 161.035 5.6 162.19H4.04ZM9.63125 162.445L9.52625 162.055C12.8413 160.885 14.3413 158.635 14.3413 155.38C14.3413 152.68 13.4413 151.465 12.2713 151.465C11.1763 151.465 10.2763 152.44 10.2763 154.36C10.2763 156.16 11.2063 157.21 12.5413 157.21C13.3363 157.21 14.0113 156.85 14.5663 156.145L14.8813 156.22H14.7463C14.2663 157.195 13.2913 157.825 12.0013 157.825C10.1563 157.825 8.80625 156.565 8.80625 154.525C8.80625 152.305 10.3213 151 12.2713 151C14.4613 151 15.8263 152.68 15.8263 155.47C15.8263 158.8 13.6063 161.485 9.63125 162.445Z" fill="#5B5651"/>
<path d="M1 205.19V204.29C1.975 203.15 2.95 202.01 3.685 201.155C5.29 199.25 5.95 198.215 5.95 196.835C5.95 195.32 5.185 194.465 3.88 194.465C3.355 194.465 2.83 194.6 2.23 194.945L2.875 194.51L2.485 196.01C2.35 196.685 2.05 196.88 1.69 196.88C1.375 196.88 1.105 196.7 1 196.385C1.225 194.81 2.71 194 4.33 194C6.415 194 7.45 195.11 7.45 196.88C7.45 198.305 6.46 199.415 4.075 201.725C3.595 202.205 2.635 203.225 1.66 204.23L1.81 203.75V203.99H7.87V205.19H1ZM13.02 205.43C10.77 205.43 9.39004 203.72 9.39004 201.005C9.39004 197.495 11.955 194.45 16.005 194L16.065 194.33C12.66 195.08 10.92 197.63 10.92 200.81C10.92 203.48 11.715 204.95 13.035 204.95C14.115 204.95 14.955 203.93 14.955 201.965C14.955 200.165 14.22 199.205 12.99 199.205C12.195 199.205 11.475 199.52 10.74 200.345L10.455 200.165H10.56C11.325 199.085 12.315 198.545 13.515 198.545C15.345 198.545 16.425 199.88 16.425 201.86C16.425 203.915 15.015 205.43 13.02 205.43Z" fill="#5B5651"/>
</svg>
