<svg width="33" height="224" viewBox="0 0 33 224" fill="none" xmlns="http://www.w3.org/2000/svg">
<path d="M16.0653 22.27C14.8353 22.27 13.5753 21.91 12.7803 21.4L12.8703 19.015H13.5903L14.2203 21.7L13.3953 21.34L13.2753 20.815C14.2503 21.505 14.8803 21.685 15.9153 21.685C17.4903 21.685 18.4653 20.965 18.4653 19.63C18.4653 18.565 17.9853 18.01 16.5153 17.38L15.8403 17.095C13.9653 16.285 12.9903 15.325 12.9903 13.69C12.9903 11.755 14.5803 10.705 16.7103 10.705C17.8653 10.705 18.7803 11.02 19.5453 11.545L19.4553 13.795H18.7203L18.1203 11.23L18.9753 11.62L19.0653 12.16C18.2553 11.515 17.7303 11.29 16.8753 11.29C15.5103 11.29 14.5503 11.95 14.5503 13.195C14.5503 14.29 15.2103 14.89 16.3503 15.37L17.0703 15.685C19.3353 16.66 20.0853 17.515 20.0853 19.105C20.0853 21.025 18.5553 22.27 16.0653 22.27Z" fill="#D95858"/>
<path d="M14 85.19V84.29C14.975 83.15 15.95 82.01 16.685 81.155C18.29 79.25 18.95 78.215 18.95 76.835C18.95 75.32 18.185 74.465 16.88 74.465C16.355 74.465 15.83 74.6 15.23 74.945L15.875 74.51L15.485 76.01C15.35 76.685 15.05 76.88 14.69 76.88C14.375 76.88 14.105 76.7 14 76.385C14.225 74.81 15.71 74 17.33 74C19.415 74 20.45 75.11 20.45 76.88C20.45 78.305 19.46 79.415 17.075 81.725C16.595 82.205 15.635 83.225 14.66 84.23L14.81 83.75V83.99H20.87V85.19H14Z" fill="#D95858"/>
<path d="M13.825 122.445L13.72 122.055C17.035 120.885 18.535 118.635 18.535 115.38C18.535 112.68 17.635 111.465 16.465 111.465C15.37 111.465 14.47 112.44 14.47 114.36C14.47 116.16 15.4 117.21 16.735 117.21C17.53 117.21 18.205 116.85 18.76 116.145L19.075 116.22H18.94C18.46 117.195 17.485 117.825 16.195 117.825C14.35 117.825 13 116.565 13 114.525C13 112.305 14.515 111 16.465 111C18.655 111 20.02 112.68 20.02 115.47C20.02 118.8 17.8 121.485 13.825 122.445Z" fill="#D95858"/>
<path d="M16.5 173C25.6127 173 33 165.613 33 156.5C33 147.387 25.6127 140 16.5 140C7.3873 140 0 147.387 0 156.5C0 165.613 7.3873 173 16.5 173Z" fill="#B99493"/>
<path d="M8.304 182.808C8.304 182.867 8.14133 182.915 7.816 182.952C7.49067 182.984 7.16533 183 6.84 183C6.51467 183 6.304 182.987 6.208 182.96C6.11733 182.928 6.072 182.877 6.072 182.808V179.352H5.256C5.16533 179.352 5.12 179.157 5.12 178.768C5.12 178.379 5.16533 178.027 5.256 177.712C5.28267 177.611 5.56533 177.517 6.104 177.432C6.64267 177.347 7.056 177.304 7.344 177.304C7.632 177.304 7.824 177.315 7.92 177.336C8.016 177.357 8.088 177.384 8.136 177.416C8.184 177.443 8.22133 177.475 8.248 177.512C8.28533 177.571 8.304 177.627 8.304 177.68V182.808ZM13.585 178.728C13.585 179.267 13.3717 179.669 12.945 179.936C13.0037 179.963 13.0783 180.027 13.169 180.128C13.265 180.229 13.345 180.331 13.409 180.432C13.5743 180.693 13.657 181.003 13.657 181.36C13.657 181.947 13.4463 182.379 13.025 182.656C12.6037 182.933 12.025 183.072 11.289 183.072C10.9263 183.072 10.5823 183.043 10.257 182.984C9.937 182.92 9.69167 182.851 9.521 182.776C9.35033 182.696 9.265 182.624 9.265 182.56C9.265 182.267 9.297 182.008 9.361 181.784C9.425 181.56 9.497 181.403 9.577 181.312C9.657 181.216 9.73433 181.168 9.809 181.168C9.83033 181.168 9.97167 181.216 10.233 181.312C10.4943 181.408 10.7503 181.456 11.001 181.456C11.257 181.456 11.385 181.376 11.385 181.216C11.385 180.997 11.1157 180.88 10.577 180.864C10.3637 180.859 10.2463 180.853 10.225 180.848C10.113 180.811 10.057 180.576 10.057 180.144C10.057 179.712 10.113 179.475 10.225 179.432C10.2463 179.421 10.3637 179.416 10.577 179.416C11.1157 179.405 11.385 179.296 11.385 179.088C11.385 178.928 11.2677 178.848 11.033 178.848C10.8037 178.848 10.5477 178.904 10.265 179.016C9.98233 179.128 9.82767 179.184 9.801 179.184C9.67833 179.184 9.56633 179.005 9.465 178.648C9.36367 178.291 9.313 178.037 9.313 177.888C9.313 177.749 9.46767 177.608 9.777 177.464C10.1183 177.309 10.6197 177.232 11.281 177.232C12.817 177.232 13.585 177.731 13.585 178.728ZM16.324 179.656C16.324 179.971 16.252 180.187 16.108 180.304C15.964 180.416 15.7507 180.472 15.468 180.472C15.1907 180.472 14.98 180.416 14.836 180.304C14.692 180.187 14.62 179.971 14.62 179.656C14.62 179.336 14.692 179.125 14.836 179.024C14.9853 178.917 15.1987 178.864 15.476 178.864C15.7533 178.864 15.964 178.917 16.108 179.024C16.252 179.125 16.324 179.336 16.324 179.656ZM16.324 182.248C16.324 182.563 16.252 182.779 16.108 182.896C15.964 183.013 15.7507 183.072 15.468 183.072C15.1907 183.072 14.98 183.013 14.836 182.896C14.692 182.779 14.62 182.563 14.62 182.248C14.62 181.933 14.692 181.725 14.836 181.624C14.9853 181.517 15.1987 181.464 15.476 181.464C15.7533 181.464 15.964 181.517 16.108 181.624C16.252 181.725 16.324 181.933 16.324 182.248ZM21.6038 178.728C21.6038 179.267 21.3904 179.669 20.9637 179.936C21.0224 179.963 21.0971 180.027 21.1877 180.128C21.2837 180.229 21.3637 180.331 21.4278 180.432C21.5931 180.693 21.6758 181.003 21.6758 181.36C21.6758 181.947 21.4651 182.379 21.0437 182.656C20.6224 182.933 20.0438 183.072 19.3077 183.072C18.9451 183.072 18.6011 183.043 18.2757 182.984C17.9557 182.92 17.7104 182.851 17.5397 182.776C17.3691 182.696 17.2837 182.624 17.2837 182.56C17.2837 182.267 17.3157 182.008 17.3797 181.784C17.4437 181.56 17.5157 181.403 17.5957 181.312C17.6757 181.216 17.7531 181.168 17.8277 181.168C17.8491 181.168 17.9904 181.216 18.2517 181.312C18.5131 181.408 18.7691 181.456 19.0197 181.456C19.2757 181.456 19.4037 181.376 19.4037 181.216C19.4037 180.997 19.1344 180.88 18.5957 180.864C18.3824 180.859 18.2651 180.853 18.2437 180.848C18.1317 180.811 18.0757 180.576 18.0757 180.144C18.0757 179.712 18.1317 179.475 18.2437 179.432C18.2651 179.421 18.3824 179.416 18.5957 179.416C19.1344 179.405 19.4037 179.296 19.4037 179.088C19.4037 178.928 19.2864 178.848 19.0517 178.848C18.8224 178.848 18.5664 178.904 18.2837 179.016C18.0011 179.128 17.8464 179.184 17.8197 179.184C17.6971 179.184 17.5851 179.005 17.4837 178.648C17.3824 178.291 17.3317 178.037 17.3317 177.888C17.3317 177.749 17.4864 177.608 17.7957 177.464C18.1371 177.309 18.6384 177.232 19.2997 177.232C20.8358 177.232 21.6038 177.731 21.6038 178.728ZM26.3348 182.96C26.0361 183.035 25.6654 183.072 25.2228 183.072C24.7801 183.072 24.4068 183.035 24.1028 182.96C23.8041 182.88 23.5321 182.736 23.2868 182.528C22.8014 182.117 22.5588 181.315 22.5588 180.12C22.5588 178.968 22.8121 178.187 23.3188 177.776C23.5694 177.573 23.8441 177.432 24.1428 177.352C24.4414 177.272 24.7988 177.232 25.2148 177.232C25.6361 177.232 25.9961 177.272 26.2948 177.352C26.5988 177.432 26.8761 177.573 27.1268 177.776C27.6334 178.187 27.8868 178.968 27.8868 180.12C27.8868 181.315 27.6441 182.117 27.1588 182.528C26.9134 182.736 26.6388 182.88 26.3348 182.96ZM25.0548 181.712C25.0974 181.781 25.1534 181.816 25.2228 181.816C25.2974 181.816 25.3561 181.781 25.3988 181.712C25.4414 181.637 25.4761 181.477 25.5028 181.232C25.5294 180.987 25.5428 180.637 25.5428 180.184C25.5428 179.731 25.5294 179.379 25.5028 179.128C25.4761 178.872 25.4414 178.704 25.3988 178.624C25.3561 178.539 25.2974 178.496 25.2228 178.496C25.1534 178.496 25.0974 178.536 25.0548 178.616C24.9481 178.797 24.8948 179.32 24.8948 180.184C24.8948 181.043 24.9481 181.552 25.0548 181.712Z" fill="#B99493"/>
<path d="M10.06 161.19V160.77L12.175 160.53H13.495L15.445 160.785V161.22L10.06 161.19ZM12.04 161.19C12.07 160.035 12.085 158.865 12.085 157.725V151.05L10 151.38V150.915L13.39 150.06L13.615 150.225L13.555 152.61V157.725C13.555 158.865 13.57 160.035 13.6 161.19H12.04ZM20.4662 161.43C18.2163 161.43 16.8362 159.72 16.8362 157.005C16.8362 153.495 19.4013 150.45 23.4513 150L23.5113 150.33C20.1063 151.08 18.3663 153.63 18.3663 156.81C18.3663 159.48 19.1613 160.95 20.4813 160.95C21.5613 160.95 22.4013 159.93 22.4013 157.965C22.4013 156.165 21.6663 155.205 20.4363 155.205C19.6413 155.205 18.9213 155.52 18.1863 156.345L17.9013 156.165H18.0062C18.7713 155.085 19.7613 154.545 20.9613 154.545C22.7913 154.545 23.8713 155.88 23.8713 157.86C23.8713 159.915 22.4613 161.43 20.4662 161.43Z" fill="white"/>
<path d="M9 205.19V204.29C9.975 203.15 10.95 202.01 11.685 201.155C13.29 199.25 13.95 198.215 13.95 196.835C13.95 195.32 13.185 194.465 11.88 194.465C11.355 194.465 10.83 194.6 10.23 194.945L10.875 194.51L10.485 196.01C10.35 196.685 10.05 196.88 9.69 196.88C9.375 196.88 9.105 196.7 9 196.385C9.225 194.81 10.71 194 12.33 194C14.415 194 15.45 195.11 15.45 196.88C15.45 198.305 14.46 199.415 12.075 201.725C11.595 202.205 10.635 203.225 9.66 204.23L9.81 203.75V203.99H15.87V205.19H9ZM20.525 205.43C18.695 205.43 17.57 204.65 17.285 203.195C17.405 202.865 17.66 202.685 17.975 202.685C18.38 202.685 18.62 202.91 18.755 203.555L19.145 205.01L18.53 204.53C19.025 204.8 19.46 204.95 20.09 204.95C21.74 204.95 22.67 203.945 22.67 202.34C22.67 200.66 21.77 199.715 20.015 199.715H19.355V199.19H19.94C21.38 199.19 22.385 198.32 22.385 196.685C22.385 195.275 21.665 194.465 20.39 194.465C19.85 194.465 19.355 194.57 18.755 194.87L19.46 194.45L19.07 195.83C18.935 196.385 18.665 196.565 18.275 196.565C17.99 196.565 17.75 196.43 17.645 196.175C17.87 194.63 19.235 194 20.75 194C22.745 194 23.87 195.065 23.87 196.64C23.87 198.08 22.835 199.28 20.63 199.52V199.355C23.12 199.475 24.185 200.645 24.185 202.37C24.185 204.215 22.715 205.43 20.525 205.43Z" fill="#D95858"/>
</svg>
