<svg width="18" height="224" viewBox="0 0 18 224" fill="none" xmlns="http://www.w3.org/2000/svg">
<path d="M6.53508 22V21.535L8.83008 21.325H9.32508L11.6651 21.535V22H6.53508ZM8.15508 22C8.20008 20.32 8.20008 18.61 8.20008 16.87V16.12C8.20008 14.395 8.20008 12.685 8.15508 10.975H10.0301C9.98508 12.655 9.98508 14.38 9.98508 16.12V16.87C9.98508 18.58 9.98508 20.305 10.0301 22H8.15508ZM4.33008 13.975L4.42008 10.975H13.7651L13.8701 13.975H13.1351L12.4451 10.975L13.2851 11.53H4.90008L5.75508 10.975L5.06508 13.975H4.33008Z" fill="#5B5651"/>
<path d="M9.545 85.415V81.995V81.77V74.975H9.365L9.905 74.765L7.745 78.11L5.48 81.635L5.6 81.11V81.335H12.635V82.325H5V81.53L9.89 74H10.88V85.415H9.545Z" fill="#5B5651"/>
<path d="M3.06 122.13V121.71L5.175 121.47H6.495L8.445 121.725V122.16L3.06 122.13ZM5.04 122.13C5.07 120.975 5.085 119.805 5.085 118.665V111.99L3 112.32V111.855L6.39 111L6.615 111.165L6.555 113.55V118.665C6.555 119.805 6.57 120.975 6.6 122.13H5.04ZM10.0913 122.13V121.71L12.2063 121.47H13.5263L15.4763 121.725V122.16L10.0913 122.13ZM12.0713 122.13C12.1013 120.975 12.1163 119.805 12.1163 118.665V111.99L10.0313 112.32V111.855L13.4213 111L13.6463 111.165L13.5863 113.55V118.665C13.5863 119.805 13.6013 120.975 13.6313 122.13H12.0713Z" fill="#5B5651"/>
<path d="M2.06 162.19V161.77L4.175 161.53H5.495L7.445 161.785V162.22L2.06 162.19ZM4.04 162.19C4.07 161.035 4.085 159.865 4.085 158.725V152.05L2 152.38V151.915L5.39 151.06L5.615 151.225L5.555 153.61V158.725C5.555 159.865 5.57 161.035 5.6 162.19H4.04ZM12.2113 162.43C10.0362 162.43 8.89625 161.365 8.89625 159.805C8.89625 158.425 9.84125 157.48 11.6563 156.775V156.7L11.9713 156.91C10.6813 157.705 10.1563 158.47 10.1563 159.64C10.1563 161.11 10.9513 161.95 12.2863 161.95C13.6213 161.95 14.4013 161.155 14.4013 159.925C14.4013 158.815 13.7713 157.93 11.7013 157.03C9.94625 156.28 9.19625 155.14 9.19625 153.76C9.19625 152.065 10.5763 151 12.3613 151C14.2663 151 15.3163 152.08 15.3163 153.52C15.3163 154.585 14.6563 155.635 12.7813 156.4V156.46L12.5263 156.28C13.6513 155.485 14.1163 154.675 14.1163 153.475C14.1163 152.38 13.4863 151.48 12.3163 151.48C11.3413 151.48 10.4713 152.185 10.4713 153.355C10.4713 154.375 10.9513 155.305 12.8563 156.13C14.9113 157.03 15.7513 158.035 15.7513 159.505C15.7513 161.275 14.3863 162.43 12.2113 162.43Z" fill="#5B5651"/>
<path d="M1 205.205V204.29C1.49 203.73 1.965 203.175 2.425 202.625C2.885 202.075 3.3 201.59 3.67 201.17C4.21 200.53 4.645 199.975 4.975 199.505C5.305 199.025 5.55 198.575 5.71 198.155C5.87 197.735 5.95 197.295 5.95 196.835C5.95 196.075 5.765 195.495 5.395 195.095C5.035 194.685 4.525 194.48 3.865 194.48C3.605 194.48 3.34 194.515 3.07 194.585C2.81 194.655 2.53 194.78 2.23 194.96L2.875 194.525L2.485 196.025C2.405 196.355 2.295 196.585 2.155 196.715C2.015 196.835 1.86 196.895 1.69 196.895C1.52 196.895 1.375 196.85 1.255 196.76C1.135 196.66 1.05 196.535 1 196.385C1.07 195.855 1.265 195.415 1.585 195.065C1.915 194.715 2.32 194.45 2.8 194.27C3.28 194.09 3.785 194 4.315 194C5.365 194 6.145 194.26 6.655 194.78C7.175 195.3 7.435 196.005 7.435 196.895C7.435 197.365 7.32 197.825 7.09 198.275C6.86 198.715 6.495 199.21 5.995 199.76C5.505 200.3 4.865 200.96 4.075 201.74C3.905 201.89 3.695 202.1 3.445 202.37C3.195 202.63 2.915 202.925 2.605 203.255C2.295 203.575 1.98 203.905 1.66 204.245L1.795 203.765V204.005H7.87V205.205H1ZM12.345 205.43C11.495 205.43 10.795 205.235 10.245 204.845C9.69504 204.455 9.36004 203.905 9.24004 203.195C9.30004 203.035 9.39004 202.915 9.51004 202.835C9.63004 202.755 9.77004 202.715 9.93004 202.715C10.14 202.715 10.305 202.78 10.425 202.91C10.545 203.03 10.635 203.24 10.695 203.54L11.07 204.965L10.56 204.545C10.82 204.685 11.065 204.79 11.295 204.86C11.525 204.92 11.805 204.95 12.135 204.95C12.965 204.95 13.605 204.695 14.055 204.185C14.515 203.665 14.745 202.93 14.745 201.98C14.745 201.06 14.515 200.38 14.055 199.94C13.605 199.49 13.005 199.265 12.255 199.265C11.935 199.265 11.63 199.29 11.34 199.34C11.06 199.39 10.79 199.475 10.53 199.595L10.125 199.415L10.485 194.225H15.99V195.44H10.74L11.04 194.615L10.725 199.31L10.23 199.16C10.64 198.96 11.04 198.82 11.43 198.74C11.82 198.65 12.23 198.605 12.66 198.605C13.78 198.605 14.665 198.885 15.315 199.445C15.975 200.005 16.305 200.825 16.305 201.905C16.305 202.625 16.14 203.25 15.81 203.78C15.48 204.3 15.02 204.705 14.43 204.995C13.84 205.285 13.145 205.43 12.345 205.43Z" fill="#5B5651"/>
</svg>
