<svg width="18" height="272" viewBox="0 0 18 272" fill="none" xmlns="http://www.w3.org/2000/svg">
<path d="M9.06527 22.27C7.83527 22.27 6.57527 21.91 5.78027 21.4L5.87027 19.015H6.59027L7.22027 21.7L6.39527 21.34L6.27527 20.815C7.25027 21.505 7.88027 21.685 8.91527 21.685C10.4903 21.685 11.4653 20.965 11.4653 19.63C11.4653 18.565 10.9853 18.01 9.51527 17.38L8.84027 17.095C6.96527 16.285 5.99027 15.325 5.99027 13.69C5.99027 11.755 7.58027 10.705 9.71027 10.705C10.8653 10.705 11.7803 11.02 12.5453 11.545L12.4553 13.795H11.7203L11.1203 11.23L11.9753 11.62L12.0653 12.16C11.2553 11.515 10.7303 11.29 9.87527 11.29C8.51027 11.29 7.55027 11.95 7.55027 13.195C7.55027 14.29 8.21027 14.89 9.35027 15.37L10.0703 15.685C12.3353 16.66 13.0853 17.515 13.0853 19.105C13.0853 21.025 11.5553 22.27 9.06527 22.27Z" fill="#5B5651"/>
<path d="M0.929688 162.19V161.29C1.90469 160.15 2.87969 159.01 3.61469 158.155C5.21969 156.25 5.87969 155.215 5.87969 153.835C5.87969 152.32 5.11469 151.465 3.80969 151.465C3.28469 151.465 2.75969 151.6 2.15969 151.945L2.80469 151.51L2.41469 153.01C2.27969 153.685 1.97969 153.88 1.61969 153.88C1.30469 153.88 1.03469 153.7 0.929688 153.385C1.15469 151.81 2.63969 151 4.25969 151C6.34469 151 7.37969 152.11 7.37969 153.88C7.37969 155.305 6.38969 156.415 4.00469 158.725C3.52469 159.205 2.56469 160.225 1.58969 161.23L1.73969 160.75V160.99H7.79969V162.19H0.929688ZM9.46973 162.19V161.29C10.4447 160.15 11.4197 159.01 12.1547 158.155C13.7597 156.25 14.4197 155.215 14.4197 153.835C14.4197 152.32 13.6547 151.465 12.3497 151.465C11.8247 151.465 11.2997 151.6 10.6997 151.945L11.3447 151.51L10.9547 153.01C10.8197 153.685 10.5197 153.88 10.1597 153.88C9.84473 153.88 9.57473 153.7 9.46973 153.385C9.69473 151.81 11.1797 151 12.7997 151C14.8847 151 15.9197 152.11 15.9197 153.88C15.9197 155.305 14.9297 156.415 12.5447 158.725C12.0647 159.205 11.1047 160.225 10.1297 161.23L10.2797 160.75V160.99H16.3397V162.19H9.46973Z" fill="#5B5651"/>
<path d="M1 205.19V204.29C1.975 203.15 2.95 202.01 3.685 201.155C5.29 199.25 5.95 198.215 5.95 196.835C5.95 195.32 5.185 194.465 3.88 194.465C3.355 194.465 2.83 194.6 2.23 194.945L2.875 194.51L2.485 196.01C2.35 196.685 2.05 196.88 1.69 196.88C1.375 196.88 1.105 196.7 1 196.385C1.225 194.81 2.71 194 4.33 194C6.415 194 7.45 195.11 7.45 196.88C7.45 198.305 6.46 199.415 4.075 201.725C3.595 202.205 2.635 203.225 1.66 204.23L1.81 203.75V203.99H7.87V205.19H1ZM10.185 205.445L10.08 205.055C13.395 203.885 14.895 201.635 14.895 198.38C14.895 195.68 13.995 194.465 12.825 194.465C11.73 194.465 10.83 195.44 10.83 197.36C10.83 199.16 11.76 200.21 13.095 200.21C13.89 200.21 14.565 199.85 15.12 199.145L15.435 199.22H15.3C14.82 200.195 13.845 200.825 12.555 200.825C10.71 200.825 9.36004 199.565 9.36004 197.525C9.36004 195.305 10.875 194 12.825 194C15.015 194 16.38 195.68 16.38 198.47C16.38 201.8 14.16 204.485 10.185 205.445Z" fill="#5B5651"/>
<path d="M7.06 55.13V54.71L9.175 54.47H10.495L12.445 54.725V55.16L7.06 55.13ZM9.04 55.13C9.07 53.975 9.085 52.805 9.085 51.665V44.99L7 45.32V44.855L10.39 44L10.615 44.165L10.555 46.55V51.665C10.555 52.805 10.57 53.975 10.6 55.13H9.04Z" fill="#5B5651"/>
<path d="M8.315 85.43C6.14 85.43 5 84.365 5 82.805C5 81.425 5.945 80.48 7.76 79.775V79.7L8.075 79.91C6.785 80.705 6.26 81.47 6.26 82.64C6.26 84.11 7.055 84.95 8.39 84.95C9.725 84.95 10.505 84.155 10.505 82.925C10.505 81.815 9.875 80.93 7.805 80.03C6.05 79.28 5.3 78.14 5.3 76.76C5.3 75.065 6.68 74 8.465 74C10.37 74 11.42 75.08 11.42 76.52C11.42 77.585 10.76 78.635 8.885 79.4V79.46L8.63 79.28C9.755 78.485 10.22 77.675 10.22 76.475C10.22 75.38 9.59 74.48 8.42 74.48C7.445 74.48 6.575 75.185 6.575 76.355C6.575 77.375 7.055 78.305 8.96 79.13C11.015 80.03 11.855 81.035 11.855 82.505C11.855 84.275 10.49 85.43 8.315 85.43Z" fill="#5B5651"/>
<path d="M2.06 122.13V121.71L4.175 121.47H5.495L7.445 121.725V122.16L2.06 122.13ZM4.04 122.13C4.07 120.975 4.085 119.805 4.085 118.665V111.99L2 112.32V111.855L5.39 111L5.615 111.165L5.555 113.55V118.665C5.555 119.805 5.57 120.975 5.6 122.13H4.04ZM11.8062 122.37C10.0963 122.37 8.94125 121.545 8.68625 120.12C8.80625 119.805 9.07625 119.64 9.39125 119.64C9.79625 119.64 10.0362 119.865 10.1413 120.48L10.5313 121.905L10.0212 121.485C10.5313 121.755 10.9213 121.89 11.5813 121.89C13.2463 121.89 14.2063 120.825 14.2063 118.905C14.2063 117.075 13.2163 116.19 11.7013 116.19C11.0713 116.19 10.5013 116.295 9.97625 116.52L9.58625 116.34L9.93125 111.165H15.4513V112.365H10.1863L10.5013 111.54L10.1713 116.25L9.69125 116.085C10.4863 115.695 11.2363 115.545 12.1213 115.545C14.3413 115.545 15.7662 116.685 15.7662 118.845C15.7662 121.005 14.1913 122.37 11.8062 122.37Z" fill="#5B5651"/>
</svg>
