<svg width="18" height="272" viewBox="0 0 18 272" fill="none" xmlns="http://www.w3.org/2000/svg">
<path d="M2.50977 22V21.535L4.24977 21.325H4.56477L6.33477 21.535V22H2.50977ZM2.61477 11.455V10.975H4.78977V11.635H4.62477L2.61477 11.455ZM4.05477 22L4.09977 10.975H4.60977L4.71477 16.435V22H4.05477ZM8.50977 22L4.35477 11.545H4.24977V10.975H5.94477L9.55977 20.14H9.19977L9.28977 19.915L12.7848 10.975H13.4748V11.545H13.1748L12.9948 11.995L9.12477 22H8.50977ZM11.3598 22V21.535L13.5498 21.325H13.9098L16.1298 21.535V22H11.3598ZM12.7998 22C12.8448 20.305 12.8298 18.58 12.8448 17.11L12.9048 10.975H14.6598C14.6148 12.67 14.6148 14.395 14.6148 16.12V16.87C14.6148 18.61 14.6148 20.32 14.6598 22H12.7998ZM13.7148 11.635V10.975H16.0998V11.455L13.9098 11.635H13.7148Z" fill="#5B5651"/>
<path d="M8.24 85.43C6.41 85.43 5.285 84.65 5 83.195C5.12 82.865 5.375 82.685 5.69 82.685C6.095 82.685 6.335 82.91 6.47 83.555L6.86 85.01L6.245 84.53C6.74 84.8 7.175 84.95 7.805 84.95C9.455 84.95 10.385 83.945 10.385 82.34C10.385 80.66 9.485 79.715 7.73 79.715H7.07V79.19H7.655C9.095 79.19 10.1 78.32 10.1 76.685C10.1 75.275 9.38 74.465 8.105 74.465C7.565 74.465 7.07 74.57 6.47 74.87L7.175 74.45L6.785 75.83C6.65 76.385 6.38 76.565 5.99 76.565C5.705 76.565 5.465 76.43 5.36 76.175C5.585 74.63 6.95 74 8.465 74C10.46 74 11.585 75.065 11.585 76.64C11.585 78.08 10.55 79.28 8.345 79.52V79.355C10.835 79.475 11.9 80.645 11.9 82.37C11.9 84.215 10.43 85.43 8.24 85.43Z" fill="#5B5651"/>
<path d="M2.06 122.19V121.77L4.175 121.53H5.495L7.445 121.785V122.22L2.06 122.19ZM4.04 122.19C4.07 121.035 4.085 119.865 4.085 118.725V112.05L2 112.38V111.915L5.39 111.06L5.615 111.225L5.555 113.61V118.725C5.555 119.865 5.57 121.035 5.6 122.19H4.04ZM12.3013 122.43C10.4413 122.43 8.74625 120.765 8.74625 116.685C8.74625 112.65 10.4413 111 12.3013 111C14.1463 111 15.8563 112.65 15.8563 116.685C15.8563 120.765 14.1463 122.43 12.3013 122.43ZM12.3013 121.95C13.3663 121.95 14.4163 120.72 14.4163 116.685C14.4163 112.71 13.3663 111.48 12.3013 111.48C11.2213 111.48 10.1863 112.71 10.1863 116.685C10.1863 120.72 11.2213 121.95 12.3013 121.95Z" fill="#5B5651"/>
<path d="M2.06 162.13V161.71L4.175 161.47H5.495L7.445 161.725V162.16L2.06 162.13ZM4.04 162.13C4.07 160.975 4.085 159.805 4.085 158.665V151.99L2 152.32V151.855L5.39 151L5.615 151.165L5.555 153.55V158.665C5.555 159.805 5.57 160.975 5.6 162.13H4.04ZM10.3363 162.13L10.2163 162.025L15.0013 151.9L14.8363 152.605V152.365H8.89625V151.165H15.5263V151.93L11.5963 162.13H10.3363Z" fill="#5B5651"/>
<path d="M1 205.19V204.29C1.975 203.15 2.95 202.01 3.685 201.155C5.29 199.25 5.95 198.215 5.95 196.835C5.95 195.32 5.185 194.465 3.88 194.465C3.355 194.465 2.83 194.6 2.23 194.945L2.875 194.51L2.485 196.01C2.35 196.685 2.05 196.88 1.69 196.88C1.375 196.88 1.105 196.7 1 196.385C1.225 194.81 2.71 194 4.33 194C6.415 194 7.45 195.11 7.45 196.88C7.45 198.305 6.46 199.415 4.075 201.725C3.595 202.205 2.635 203.225 1.66 204.23L1.81 203.75V203.99H7.87V205.19H1ZM13.665 205.46V202.04V195.035H13.47L14.01 194.81L11.865 198.155L9.58504 201.695L9.72004 201.17V201.38H16.755V202.385H9.10504V201.575L13.995 194.045H15V205.46H13.665Z" fill="#5B5651"/>
</svg>
