<svg width="18" height="224" viewBox="0 0 18 224" fill="none" xmlns="http://www.w3.org/2000/svg">
<path d="M4.71973 22V21.535L6.92473 21.325H7.43473L9.69973 21.535V22H4.71973ZM6.17473 22C6.21973 20.32 6.21973 18.61 6.21973 16.87V16.12C6.21973 14.395 6.21973 12.685 6.17473 10.975H8.04973C8.00473 12.655 8.00473 14.38 8.00473 16.24V16.63C8.00473 18.58 8.00473 20.305 8.04973 22H6.17473ZM7.11973 16.66V16.135H10.8097V16.66H7.11973ZM10.6597 18.265L10.4497 16.6V16.18L10.6597 14.56H11.2747V18.265H10.6597ZM4.71973 11.455V10.975H7.11973V11.635H6.92473L4.71973 11.455ZM12.3247 13.78L11.6797 11.035L12.5947 11.53H7.11973V10.975H12.9847L13.0297 13.78H12.3247Z" fill="#5B5651"/>
<path d="M7.44 84.965L7.32 84.86L12.105 74.735L11.94 75.44V75.2H6V74H12.63V74.765L8.7 84.965H7.44Z" fill="#5B5651"/>
<path d="M2.06 122.145V121.725L4.175 121.485H5.495L7.445 121.74V122.175L2.06 122.145ZM4.04 122.145C4.07 120.99 4.085 119.82 4.085 118.68V112.005L2 112.335V111.87L5.39 111.015L5.615 111.18L5.555 113.565V118.68C5.555 119.82 5.57 120.99 5.6 122.145H4.04ZM13.1113 122.415V118.995V111.99H12.9163L13.4563 111.765L11.3113 115.11L9.0313 118.65L9.1663 118.125V118.335H16.2013V119.34H8.5512V118.53L13.4413 111H14.4463V122.415H13.1113Z" fill="#5B5651"/>
<path d="M2 162.19V161.29C2.975 160.15 3.95 159.01 4.685 158.155C6.29 156.25 6.95 155.215 6.95 153.835C6.95 152.32 6.185 151.465 4.88 151.465C4.355 151.465 3.83 151.6 3.23 151.945L3.875 151.51L3.485 153.01C3.35 153.685 3.05 153.88 2.69 153.88C2.375 153.88 2.105 153.7 2 153.385C2.225 151.81 3.71 151 5.33 151C7.415 151 8.45 152.11 8.45 153.88C8.45 155.305 7.46 156.415 5.075 158.725C4.595 159.205 3.635 160.225 2.66 161.23L2.81 160.75V160.99H8.87V162.19H2ZM10.645 162.19V161.77L12.76 161.53H14.08L16.03 161.785V162.22L10.645 162.19ZM12.625 162.19C12.655 161.035 12.67 159.865 12.67 158.725V152.05L10.585 152.38V151.915L13.975 151.06L14.2 151.225L14.14 153.61V158.725C14.14 159.865 14.155 161.035 14.185 162.19H12.625Z" fill="#5B5651"/>
<path d="M2 205.19V204.29C2.975 203.15 3.95 202.01 4.685 201.155C6.29 199.25 6.95 198.215 6.95 196.835C6.95 195.32 6.185 194.465 4.88 194.465C4.355 194.465 3.83 194.6 3.23 194.945L3.875 194.51L3.485 196.01C3.35 196.685 3.05 196.88 2.69 196.88C2.375 196.88 2.105 196.7 2 196.385C2.225 194.81 3.71 194 5.33 194C7.415 194 8.45 195.11 8.45 196.88C8.45 198.305 7.46 199.415 5.075 201.725C4.595 202.205 3.635 203.225 2.66 204.23L2.81 203.75V203.99H8.87V205.19H2ZM13.765 205.43C11.59 205.43 10.45 204.365 10.45 202.805C10.45 201.425 11.395 200.48 13.21 199.775V199.7L13.525 199.91C12.235 200.705 11.71 201.47 11.71 202.64C11.71 204.11 12.505 204.95 13.84 204.95C15.175 204.95 15.955 204.155 15.955 202.925C15.955 201.815 15.325 200.93 13.255 200.03C11.5 199.28 10.75 198.14 10.75 196.76C10.75 195.065 12.13 194 13.915 194C15.82 194 16.87 195.08 16.87 196.52C16.87 197.585 16.21 198.635 14.335 199.4V199.46L14.08 199.28C15.205 198.485 15.67 197.675 15.67 196.475C15.67 195.38 15.04 194.48 13.87 194.48C12.895 194.48 12.025 195.185 12.025 196.355C12.025 197.375 12.505 198.305 14.41 199.13C16.465 200.03 17.305 201.035 17.305 202.505C17.305 204.275 15.94 205.43 13.765 205.43Z" fill="#5B5651"/>
</svg>
